<?xml version="1.0" standalone="no" ?>
<svg xmlns="http://www.w3.org/2000/svg" xmlns:xlink="http://www.w3.org/1999/xlink" version="1.0" width="21px" height="21px" viewBox="0,0,21,21">
<style type="text/css">
<![CDATA[
g { fill-rule:evenodd }
path { fill-rule:evenodd }
.buttonFillKultur { fill:#d782b1 }
.fg { fill:#222 }
]]>
</style>
<defs>
<g id="button"><circle class="buttonFillKultur" cx="10.5" cy="10.5" r="10.5"/></g>
<path id="bad" transform="scale(1.2) translate(-1.5,-2.5)" d="M5,11.5 l5,-4.5 l4,1.5 v1 l-3.5,-1.5 -1.5,1.5 v1 h1 c0,0 0,-1 1,-1 0,0 1,0 1,1 s-1,1 -1,1 s-1,1.25 -3,1.25 -3,-1.25 -3,-1.25 z M5,12.69 c0,0 1,1.25 3,1.25 s2,-1.25 4,-1.25 3,1 3,1 v1.06 c0,0 -1,-1 -3,-1 s-2,1.25 -4,1.25 -3,-1.25 -3,-1.25 v-1.06 z" class="fg"/>
</defs>
<svg version="1.0" xmlns="http://www.w3.org/2000/svg">
<use xlink:href="#button"/>
<use transform="scale(1.117647) translate(-1,-1)" xlink:href="#bad" />
</svg>
</svg>