<?xml version="1.0" standalone="no" ?>
<svg xmlns="http://www.w3.org/2000/svg" xmlns:xlink="http://www.w3.org/1999/xlink" version="1.0" width="21px" height="21px" viewBox="0,0,21,21">
<style type="text/css">
<![CDATA[
g { fill-rule:evenodd }
path { fill-rule:evenodd }
.buttonFillGastro { fill:#5dbdbc }
.fg { fill:#222 }
]]>
</style>
<defs>
<g id="button"><circle class="buttonFillGastro" cx="10.5" cy="10.5" r="10.5"/></g>
<path id="cafe" d="M6,5.5 l7.5,0 c2.5,0 2.5,2 2.5,2 c0,2 -2,2 -2,2 l0,1 c0,2 -1,2 -1,2 l-6,0 c -1,0 -1,-2 -1,-2 z M4,13 l11.5,0 c0,1.5 -1.5,1.5 -1.5,1.5 l-8,0 c-1.5,0 -1.5,-1.5 -1.5,-1.5 z M14,6.5 c 1,0 1,1 1,1 c0,1 -1,1 -1,1 z" class="fg"/>
</defs>
<svg version="1.0" xmlns="http://www.w3.org/2000/svg">
<use xlink:href="#button"/>
<use transform="scale(1.117647) translate(-1,-1)" xlink:href="#cafe" />
</svg>
</svg>