<?xml version="1.0" standalone="no" ?>
<svg xmlns="http://www.w3.org/2000/svg" xmlns:xlink="http://www.w3.org/1999/xlink" version="1.0" width="21px" height="21px" viewBox="0,0,21,21">
<style type="text/css">
<![CDATA[
g { fill-rule:evenodd }
path { fill-rule:evenodd }
.buttonFillKultur { fill:#d782b1 }
.fg { fill:#222 }
]]>
</style>
<defs>
<g id="button"><circle class="buttonFillKultur" cx="10.5" cy="10.5" r="10.5"/></g>
<path transform="scale(1.2) translate(-1.5,-2)" id="feuerstelle" d="M13.2,12.39 c0,0 0.28,-0.37 0.54,-0.44 0.18,-0.07 0.95,-0.94 0.95,-0.94 s-0,0.75 -0.02,1.13 c-0.04,0.8 -1.25,0.99 -0.94,1.08 c-1.08,0.53 -1.86,1.66 -1.86,1.66 l1.77,0.27 l-0.19,0.87 c0,0 -3.54,-0.58 -3.54,-0.65 1.27,-0.39 1.36,-0.64 1.41,-0.74 0.7,-0.72 0.61,-1.19 0.62,-1.69 0,-0.67 -0.2,-1.34 -0.26,-1.53 c-0.15,0.51 -0.25,0.67 -0.43,0.85 c-0.38,0.37 -0.36,1.19 -0.36,1.19 s-0.45,-0.08 -0.49,-0.91 c0.01,-0.9 0.81,-1.61 0.81,-2.59 c-0.02,-0.75 -0.5,-1.24 -0.52,-1.25 c-0.15,1.1 -0.54,1.39 -0.67,1.49 -0.74,0.95 -0.65,1.58 -0.68,1.57 c-0.47,-0.08 -0.32,-1.28 -0.3,-1.51 -0.78,0.8 -0.77,1.36 -0.79,1.59 c-0.01,0.53 0.48,1.19 0.22,1.67 -0.46,-0.76 -0.6,-0.71 -0.6,-0.71 s0.08,0.37 0.06,0.76 c0,0.74 0.5,1.04 0.5,1.04 l1.29,-0.31 -0.26,1.03 -3.07,0.68 -0.38,-0.97 c0,0 2.11,-0.2 2.11,-0.2 -2.42,-0.86 -1.9,-3.44 -1.91,-3.44 c0.07,-0.83 0.31,-1.39 1.01,-2.56 c0.41,-0.36 0.81,-1.34 0.67,-2.15 0.66,0.62 1.12,0.98 0.8,1.95 1.57,-1.65 0.65,-3.01 0.68,-3.52 c0.05,-0.81 0.3,-1.08 0.36,-1.12 c0.3,1.16 0.51,1.34 0.94,1.66 c0.86,0.71 0.69,0.27 1.52,1.09 0.47,0.5 0.44,1 0.46,1.59 c0.73,-0.18 0.81,-0.88 0.81,-0.88 l0.23,0.57 c0,0 0.36,0.98 0.3,1.48 c-0.09,1.09 -0.87,1.93 -0.92,2.08 c-0.08,0.34 -0.08,0.41 -0.07,0.58 c0.05,0.51 0.22,0.23 0.22,0.23 z" class="fg"/>
</defs>
<svg version="1.0" xmlns="http://www.w3.org/2000/svg">
<use xlink:href="#button"/>
<use transform="scale(1.117647) translate(-1,-1)" xlink:href="#feuerstelle" />
</svg>
</svg>