<?xml version="1.0" standalone="no" ?>
<svg xmlns="http://www.w3.org/2000/svg" xmlns:xlink="http://www.w3.org/1999/xlink" version="1.0" width="21px" height="21px" viewBox="0,0,21,21">
<style type="text/css">
<![CDATA[
g { fill-rule:evenodd }
path { fill-rule:evenodd }
.buttonFillService { fill:#e1d419 }
.fg { fill:#222 }
]]>
</style>
<defs>
<g id="button"><circle class="buttonFillService" cx="10.5" cy="10.5" r="10.5"/></g>
<g id="geldautomat"><path class="fg" d="M12.682,4.025c0-0.53-0.43-0.961-0.962-0.961c-0.53,0-0.961,0.431-0.961,0.961v2.478h1.923V4.025z"/><path class="fg" d="M10.22,2.85c0-0.53-0.431-0.961-0.962-0.961c-0.53,0-0.961,0.431-0.961,0.961v3.653h1.924V2.85z"/><path class="fg" d="M7.757,4.025c0-0.53-0.431-0.961-0.963-0.961c-0.531,0-0.962,0.431-0.962,0.961v2.478h1.925V4.025z"/><path class="fg" d="M15.146,5.028c0-0.531-0.431-0.962-0.962-0.962s-0.961,0.432-0.961,0.962v1.475h1.923V5.028z"/><path class="fg" d="M7.714,13.755v-2.009c0-0.578-0.471-1.049-1.051-1.049c-0.577,0-1.049,0.471-1.049,1.049v2.009v0.426v1.359c0,1.676,1.485,3.038,3.312,3.038h2.94c1.826,0,3.311-1.362,3.311-3.038v-1.321l-7.463-0.001V13.755z"/><polygon class="fg" points="17.485,8.104 17.485,12.57 8.286,12.57 8.286,13.448 18.365,13.448 18.365,7.226 2.636,7.226 2.636,13.448 5.03,13.448 5.03,12.57 3.514,12.57 3.514,8.104 "/><path class="fg" d="M13.535,9.426c-0.059-0.198-0.138-0.357-0.238-0.476c-0.102-0.119-0.218-0.204-0.352-0.256c-0.131-0.05-0.271-0.075-0.422-0.075c-0.148,0-0.288,0.025-0.42,0.075c-0.133,0.052-0.248,0.137-0.348,0.256c-0.1,0.119-0.178,0.278-0.236,0.476c-0.059,0.197-0.088,0.441-0.088,0.73c0,0.298,0.029,0.547,0.088,0.749c0.059,0.2,0.137,0.358,0.236,0.479s0.215,0.205,0.348,0.256c0.132,0.051,0.271,0.077,0.42,0.077c0.15,0,0.291-0.026,0.422-0.077c0.134-0.051,0.25-0.136,0.352-0.256c0.101-0.12,0.18-0.278,0.238-0.479c0.059-0.202,0.088-0.451,0.088-0.749C13.623,9.868,13.594,9.624,13.535,9.426 M13.01,10.465c-0.006,0.122-0.025,0.238-0.055,0.35c-0.029,0.113-0.076,0.209-0.145,0.289c-0.066,0.079-0.163,0.119-0.287,0.119c-0.123,0-0.217-0.04-0.281-0.119c-0.066-0.08-0.113-0.175-0.145-0.289c-0.029-0.112-0.047-0.229-0.053-0.35c-0.006-0.12-0.008-0.223-0.008-0.309c0-0.051,0-0.114,0.002-0.185c0-0.072,0.006-0.148,0.015-0.224c0.011-0.076,0.023-0.152,0.042-0.228c0.021-0.076,0.049-0.143,0.084-0.204c0.035-0.06,0.08-0.106,0.136-0.144c0.056-0.037,0.125-0.057,0.208-0.057c0.082,0,0.151,0.02,0.208,0.057c0.058,0.038,0.104,0.084,0.142,0.144c0.036,0.061,0.064,0.127,0.082,0.204c0.019,0.075,0.033,0.152,0.043,0.228c0.01,0.076,0.015,0.152,0.016,0.224c0.003,0.071,0.004,0.134,0.004,0.185C13.018,10.242,13.014,10.345,13.01,10.465"/><path class="fg" d="M16.118,9.426c-0.06-0.198-0.138-0.357-0.239-0.476s-0.218-0.204-0.35-0.256c-0.131-0.05-0.273-0.075-0.423-0.075c-0.148,0-0.289,0.025-0.421,0.075c-0.132,0.052-0.249,0.137-0.348,0.256c-0.101,0.119-0.178,0.278-0.236,0.476c-0.059,0.197-0.088,0.441-0.088,0.73c0,0.298,0.029,0.547,0.088,0.749c0.059,0.2,0.136,0.358,0.236,0.479s0.216,0.205,0.348,0.256s0.272,0.077,0.421,0.077c0.149,0,0.292-0.026,0.423-0.077c0.132-0.051,0.248-0.136,0.35-0.256s0.18-0.278,0.239-0.479c0.059-0.202,0.088-0.45,0.088-0.749C16.206,9.868,16.176,9.624,16.118,9.426 M15.592,10.465c-0.006,0.122-0.023,0.238-0.054,0.35c-0.031,0.113-0.078,0.209-0.146,0.289c-0.066,0.079-0.162,0.119-0.287,0.119c-0.123,0-0.216-0.04-0.281-0.119c-0.065-0.08-0.114-0.175-0.144-0.289c-0.03-0.112-0.047-0.229-0.053-0.35c-0.006-0.12-0.008-0.223-0.008-0.309c0-0.051,0-0.114,0.002-0.185c0-0.072,0.006-0.148,0.015-0.224c0.009-0.076,0.023-0.152,0.042-0.228c0.021-0.076,0.048-0.143,0.084-0.204c0.035-0.06,0.08-0.106,0.136-0.144c0.056-0.037,0.124-0.057,0.208-0.057c0.081,0,0.15,0.02,0.208,0.057c0.056,0.038,0.103,0.084,0.141,0.144c0.038,0.061,0.065,0.127,0.083,0.204c0.018,0.075,0.032,0.152,0.043,0.228c0.009,0.076,0.016,0.152,0.017,0.224c0.002,0.071,0.002,0.134,0.002,0.185C15.6,10.242,15.597,10.345,15.592,10.465"/><path class="fg" d="M9.49,9.271c0.105,0.003,0.207-0.006,0.305-0.024c0.099-0.018,0.187-0.051,0.265-0.098c0.079-0.048,0.143-0.109,0.197-0.185c0.054-0.078,0.091-0.172,0.106-0.285h0.482v2.982h-0.605V9.726H9.49V9.271z"/></g>
</defs>
<svg version="1.0" xmlns="http://www.w3.org/2000/svg">
<use xlink:href="#button"/>
<use transform="scale(1.117647) translate(-1,-1)" xlink:href="#geldautomat" />
</svg>
</svg>