<?xml version="1.0" standalone="no" ?>
<svg xmlns="http://www.w3.org/2000/svg" xmlns:xlink="http://www.w3.org/1999/xlink" version="1.0" width="21px" height="21px" viewBox="0,0,21,21">
<style type="text/css">
<![CDATA[
g { fill-rule:evenodd }
path { fill-rule:evenodd }
.buttonFillKultur { fill:#d782b1 }
.fg { fill:#222 }
]]>
</style>
<defs>
<g id="button"><circle class="buttonFillKultur" cx="10.5" cy="10.5" r="10.5"/></g>
<g id="kino"><path class="fg" d="M16.344,9.386H4.712c-0.322,0-0.581,0.26-0.581,0.582v6.204c0,0.32,0.259,0.581,0.581,0.581h11.631c0.322,0,0.581-0.261,0.581-0.581V9.968C16.925,9.646,16.666,9.386,16.344,9.386M15.18,13.264H5.875c-0.32,0-0.581-0.26-0.581-0.582v-1.551c0-0.321,0.261-0.583,0.581-0.583h9.305c0.321,0,0.583,0.262,0.583,0.583v1.551C15.763,13.004,15.501,13.264,15.18,13.264"/><path class="fg" d="M4.253,8.491c0.045,0.036,0.095,0.066,0.148,0.086C4.411,8.581,4.42,8.584,4.43,8.586c0.057,0.02,0.115,0.031,0.177,0.031c0.001,0,0.003,0.002,0.006,0.002c0.033,0,0.066-0.003,0.1-0.008l0.383-0.067l0.163-0.027l1.9-0.33L7.32,8.161l1.901-0.329l0.163-0.027l1.9-0.329l0.163-0.027l1.898-0.329l0.164-0.028l1.898-0.328l0.166-0.029l0.6-0.103c0.039-0.009,0.077-0.018,0.114-0.033c0.251-0.097,0.408-0.362,0.36-0.639l-0.264-1.528V4.432c-0.013-0.065-0.037-0.125-0.067-0.18c-0.002-0.008-0.005-0.014-0.009-0.02c-0.031-0.051-0.07-0.096-0.115-0.135c-0.007-0.007-0.014-0.014-0.021-0.021c-0.045-0.034-0.096-0.064-0.15-0.086c-0.008-0.002-0.019-0.004-0.027-0.008c-0.056-0.021-0.116-0.031-0.178-0.033c-0.002,0-0.003-0.001-0.005-0.001c-0.034,0-0.067,0.004-0.1,0.009l-0.384,0.065l-0.161,0.029L13.267,4.38l-0.163,0.028l-1.9,0.329l-0.162,0.028L9.14,5.092L8.978,5.119L7.077,5.447L6.915,5.476l-1.9,0.328L4.852,5.832L4.25,5.937C3.934,5.992,3.722,6.292,3.776,6.609l0.264,1.528c0.012,0.065,0.036,0.125,0.066,0.181c0.003,0.006,0.005,0.014,0.01,0.021c0.031,0.05,0.069,0.093,0.114,0.133C4.238,8.478,4.246,8.485,4.253,8.491 M15.305,4.814l0.35-0.06l0.06,0.347l0.078,0.452l0.051,0.292l-0.02,0.061l-0.319,0.054l-0.963,0.167l0.377-1.246L15.305,4.814z M13.76,6.263l-1.281,0.221l0.375-1.246l1.282-0.221L13.76,6.263z M11.696,6.62l-1.28,0.22l0.374-1.244l1.282-0.223L11.696,6.62z M9.633,6.974l-1.28,0.221l0.375-1.245l1.282-0.222L9.633,6.974z M7.57,7.331L6.289,7.551l0.375-1.244l1.282-0.221L7.57,7.331z M5.119,7.754l-0.347,0.06L4.711,7.466L4.633,7.015l-0.05-0.29l0.019-0.062l0.319-0.055L5.883,6.44L5.509,7.687L5.119,7.754z"/></g>
</defs>
<svg version="1.0" xmlns="http://www.w3.org/2000/svg">
<use xlink:href="#button"/>
<use transform="scale(1.117647) translate(-1,-1)" xlink:href="#kino" />
</svg>
</svg>