<?xml version="1.0" standalone="no" ?>
<svg xmlns="http://www.w3.org/2000/svg" xmlns:xlink="http://www.w3.org/1999/xlink" version="1.0" width="21px" height="21px" viewBox="0,0,21,21">
<style type="text/css">
<![CDATA[
g { fill-rule:evenodd }
path { fill-rule:evenodd }
.buttonFillService { fill:#e1d419 }
.fg { fill:#222 }
]]>
</style>
<defs>
<g id="button"><circle class="buttonFillService" cx="10.5" cy="10.5" r="10.5"/></g>
<path id="ladestation" class="fg" transform="scale(0.95) translate(0,1)" d="M7.4,3.5 c-1.7,0 -2.3,0.5 -2.3,2 v10.8 h7.6 c0,0 0,-5.1 0,-5.1 0.8,0 1,0.2 1,0.5 v2.8 c0,1.5 0.3,1.7 1.4,1.7 2,0 2.1,-0.1 2.1,-1.7 v-5.1 c0,0 1.3,0 1.2,-2.9 h-0.7 v-2 c0,-0.6 -0.7,-0.6 -0.7,0 v2 h-1 v-2 c0,-0.5 -0.7,-0.5 -0.7,0 v2 h-0.7 c0,2.9 1.3,2.9 1.3,2.9 v5.1 c0,0.6 -0.5,0.6 -0.6,0.6 s-0.6,0 -0.6,-0.6 v-3.3 c0,-1.3 -1,-1.1 -2,-1.1 v-4.7 c0,-1.5 -0.7,-2 -2.4,-2 h-2.9 z M8.4,5.5 h2.6 l-1.7,2.6 h2 l-3.6,5.2 h-0.7 l1.3,-3.9 h-1.7 l1.8,-3.9 z"/>
</defs>
<svg version="1.0" xmlns="http://www.w3.org/2000/svg">
<use xlink:href="#button"/>
<use transform="scale(1.117647) translate(-1,-1)" xlink:href="#ladestation" />
</svg>
</svg>