<svg xmlns="http://www.w3.org/2000/svg" xmlns:xlink="http://www.w3.org/1999/xlink" width="1025" height="1025"><defs><linearGradient id="b" x1="100%" x2="0%" y1="0%" y2="100%"><stop offset="0%" stop-color="#FFF"/><stop offset="100%" stop-color="#EBEBEB" stop-opacity=".98"/></linearGradient><path id="a" d="M672.29.5C773.71.5 824.42.5 879 17.76A214.55 214.55 0 0 1 1007.24 146c17.26 54.58 17.26 105.29 17.26 206.71V672.3c0 101.41 0 152.12-17.26 206.7A214.55 214.55 0 0 1 879 1007.24c-54.58 17.26-105.29 17.26-206.71 17.26H352.7c-101.41 0-152.12 0-206.7-17.26A214.55 214.55 0 0 1 17.76 879C.5 824.42.5 773.71.5 672.3V352.71C.5 251.29.5 200.58 17.76 146A214.55 214.55 0 0 1 146 17.76C200.58.5 251.29.5 352.7.5z"/></defs><g fill="none" fill-rule="evenodd"><mask id="c" fill="#fff"><use xlink:href="#a"/></mask><use xlink:href="#a"/><path fill="url(#b)" d="M.5.5h1024v1024H.5z" mask="url(#c)"/><path fill="#E2001A" d="M937.66 397.86c-.51 39.66-33.07 71.42-72.75 70.92-39.69-.51-71.44-33.07-70.94-72.76.52-39.69 33.08-71.45 72.76-70.95 39.68.52 71.43 33.1 70.93 72.79" mask="url(#c)"/><path fill="#FFF" d="m863.56 340.73 25.84 1.62 4.38 25.34 25.1 4.37c2.08 8.98 1.61 26.02 1.84 25.78.7-.69-25.57-3.68-25.57-3.68l-2.07 32.94h-26.94l2.07-33.86-33.84 1.87-.48-26.4s14.94-2.26 33.17-2.26z" mask="url(#c)"/><path fill="#131312" d="M705.86 572.5c0 25.99 9.36 38.99 28.09 38.99 15.42 0 26.32-6.07 32.71-18.18-12.99-4.19-19.5-17.19-19.5-38.99l.01-188.69-41.31 9.92zM669.62 553.98v-37.84c0-34.26-6.27-57.53-18.84-69.81-12.55-12.29-32.33-18.43-59.32-18.43-19.61 0-36.52 3.41-50.73 10.24l8.93 32.07c10.45-5.18 23.46-7.77 38.99-7.77 26.33 0 39.5 10.4 39.5 31.23-6.61-1.66-12.34-2.48-17.18-2.48-28.33 0-50.16 5.78-65.53 17.35-15.36 11.56-23.05 27.59-23.05 48.09 0 17.51 5.45 31.02 16.36 40.55 10.91 9.55 25.89 14.31 44.94 14.31 10.14 0 19.87-1.97 29.18-5.86 9.3-3.92 15.83-8.96 19.56-15.14 1.67 5.19 4.86 9.99 9.6 14.39s10.08 6.61 16.02 6.61c5.4 0 10.2-.7 14.39-2.07 4.18-1.39 7.97-5.05 11.39-10.99-9.46-6.06-14.21-20.87-14.21-44.45m-41.15-12.55q0 37.17-37.17 37.17c-18.41 0-27.6-7.93-27.6-23.8 0-21.35 16.3-32.05 48.9-32.05 3.53 0 8.83.72 15.87 2.14zM454.6 427.9c-29.85 0-53.43 8.6-70.73 25.78-17.29 17.19-25.94 39.72-25.94 67.58 0 28.31 7.9 50.43 23.71 66.35 15.8 15.91 37.36 23.88 64.7 23.88 12.23 0 22.82-1 31.81-2.97 8.98-1.98 19.46-6.72 31.47-14.21l-15.21-32.56c-11.67 10.13-25.16 15.2-40.49 15.2-35.35 0-53.02-18.57-53.02-55.69 0-18.4 4.54-32.79 13.63-43.21 9.09-10.41 21.44-15.61 37.1-15.61 16.29 0 29.3 4.58 38.98 13.71l17.69-30.9c-15.2-11.57-33.1-17.35-53.7-17.35M318.02 452.36c-14.86-16.31-35.74-24.46-62.62-24.46-25.55 0-46.13 8.49-61.71 25.45-15.59 16.96-23.39 38.94-23.39 65.93 0 27.87 7.46 50.22 22.39 67 14.93 16.8 35.83 25.21 62.71 25.21 26.33 0 47.08-8.33 62.22-24.95 15.13-16.64 22.73-39.05 22.73-67.26 0-28.3-7.45-50.62-22.33-66.92m-31.96 110.2c-7.55 10.15-17.76 15.21-30.66 15.21-28.09 0-42.14-19.49-42.14-58.49 0-18.18 3.81-32.33 11.4-42.46 7.61-10.14 17.85-15.21 30.74-15.21 27.99 0 41.97 19.21 41.97 57.67 0 18.73-3.77 33.17-11.31 43.28M93.65 572.5c0 25.99 9.35 38.99 28.08 38.99 15.42 0 26.34-6.07 32.72-18.18-13-4.19-19.5-17.19-19.5-38.99V365.63l-41.3 9.92z" mask="url(#c)"/><path fill="#999" d="M927.36 608.44v-37.83c0-7.94-2.11-14.04-6.35-18.3s-10.2-6.4-17.89-6.4c-6.49 0-11.6 1.69-15.28 5.04v-30.18l-14.56 3.43v84.24h14.56v-44.07c1.03-1.64 2.74-3.1 5.14-4.39 2.41-1.27 4.81-1.91 7.16-1.91 3.83 0 6.92 1.15 9.29 3.42 2.36 2.31 3.56 5.34 3.56 9.12v37.83zM845.02 545.91c-10.36 0-18.53 2.98-24.53 8.95-6.01 5.94-9 13.78-9 23.43 0 9.82 2.74 17.49 8.22 23 5.48 5.53 12.96 8.28 22.43 8.28 4.25 0 7.93-.33 11.04-1.02q4.665-1.05 10.92-4.92l-5.28-11.3c-4.05 3.51-8.74 5.27-14.04 5.27-12.26 0-18.39-6.43-18.39-19.31 0-6.38 1.57-11.37 4.72-14.98 3.16-3.61 7.44-5.42 12.87-5.42 5.66 0 10.17 1.59 13.52 4.76l6.14-10.7c-5.28-4.03-11.49-6.04-18.62-6.04M783.05 608.27c2.01 2 4.44 3.03 7.31 3.03s5.3-1.03 7.31-3.03c2-2.04 3.01-4.48 3.01-7.34s-1.01-5.29-3.01-7.3c-2.01-2.02-4.44-3.03-7.31-3.03s-5.3 1.01-7.31 3.03c-1.99 2.01-3 4.44-3 7.3s1.01 5.3 3 7.34" mask="url(#c)"/><path fill="#009DE3" d="M737.38 869.2H11.64c-3.72 0-7.42-.04-11.11-.12v155.38h1023.94V726.34c-9.4 79.73-134.64 142.86-287.09 142.86" mask="url(#c)"/></g></svg>