<?xml version="1.0" standalone="no" ?>
<svg xmlns="http://www.w3.org/2000/svg" xmlns:xlink="http://www.w3.org/1999/xlink" version="1.0" width="21px" height="21px" viewBox="0,0,21,21">
<style type="text/css">
<![CDATA[
g { fill-rule:evenodd }
path { fill-rule:evenodd }
.buttonFillKultur { fill:#d782b1 }
.fg { fill:#222 }
]]>
</style>
<defs>
<g id="button"><circle class="buttonFillKultur" cx="10.5" cy="10.5" r="10.5"/></g>
<g id="spielplatz"><path class="fg" d="M5.741,5.529c0.553,0.237,1.191-0.017,1.429-0.57C7.406,4.406,7.15,3.768,6.596,3.53C6.045,3.294,5.405,3.549,5.167,4.102C4.932,4.653,5.189,5.292,5.741,5.529"/><path class="fg" d="M16.966,8.266c-0.532-0.28-1.188-0.078-1.469,0.456c-0.281,0.53-0.075,1.187,0.456,1.468c0.531,0.279,1.187,0.078,1.468-0.454C17.705,9.205,17.498,8.546,16.966,8.266"/><path class="fg" d="M16.566,11.057c-0.292-0.154-0.619-0.166-0.91-0.063c-0.1,0.022-0.198,0.06-0.284,0.129l-1.643,1.361l-0.23-0.119c-0.006-0.004-0.013-0.004-0.019-0.008c-0.051-0.022-0.104-0.033-0.158-0.045c-0.033-0.007-0.065-0.018-0.1-0.02c-0.011,0-0.021-0.008-0.032-0.008c-0.039,0-0.073,0.017-0.11,0.021c-0.039,0.009-0.074,0.012-0.111,0.023c-0.047,0.018-0.088,0.044-0.128,0.068c-0.032,0.021-0.062,0.037-0.09,0.06c-0.037,0.035-0.066,0.076-0.096,0.121c-0.018,0.022-0.039,0.037-0.053,0.063c-0.004,0.007-0.004,0.015-0.008,0.023c-0.019,0.039-0.025,0.079-0.035,0.122c-0.006,0.023-0.019,0.046-0.02,0.069l-5.896-2.766c0.03-0.042,0.067-0.081,0.089-0.131c0.001-0.005,0-0.013,0.003-0.017c0.03-0.076,0.048-0.156,0.049-0.236c0.001-0.043-0.014-0.081-0.02-0.122c-0.007-0.044-0.01-0.091-0.024-0.133c-0.01-0.02-0.029-0.039-0.042-0.062C6.67,9.337,6.646,9.284,6.603,9.238C6.538,9.169,6.461,9.122,6.38,9.087l-0.233-0.1l0.022-2.134c0.001-0.109-0.031-0.208-0.076-0.3c-0.102-0.29-0.318-0.539-0.623-0.668c-0.577-0.25-1.248,0.019-1.494,0.598L3.689,7.155L3.688,7.154L3.143,8.425l0.001,0.001c-0.145,0.335,0.012,0.725,0.35,0.87l0.431,0.183C3.925,9.481,3.928,9.482,3.93,9.483c0.001,0,0.004,0,0.006,0.002l1.012,0.433l-1.134,1.104c-0.264,0.256-0.27,0.675-0.016,0.936c0.256,0.264,0.677,0.272,0.938,0.017l1.054-1.024l2.441,1.145c-0.246,0.209-0.407,0.517-0.407,0.864v3.231h2.277v-3.218l2.429,1.139v1.419c0.002,0.366,0.302,0.662,0.668,0.659c0.366,0,0.662-0.297,0.659-0.665l-0.001-1.473l1.304,0.689 c0.323,0.171,0.725,0.045,0.894-0.278l0.357-0.678l0.629-1.192C17.336,12.039,17.122,11.351,16.566,11.057"/></g>
</defs>
<svg version="1.0" xmlns="http://www.w3.org/2000/svg">
<use xlink:href="#button"/>
<use transform="scale(1.117647) translate(-1,-1)" xlink:href="#spielplatz" />
</svg>
</svg>