<?xml version="1.0" standalone="no" ?>
<svg xmlns="http://www.w3.org/2000/svg" xmlns:xlink="http://www.w3.org/1999/xlink" version="1.0" width="21px" height="21px" viewBox="0,0,21,21">
<style type="text/css">
<![CDATA[
g { fill-rule:evenodd }
path { fill-rule:evenodd }
.buttonFillService { fill:#e1d419 }
.fg { fill:#222 }
]]>
</style>
<defs>
<g id="button"><circle class="buttonFillService" cx="10.5" cy="10.5" r="10.5"/></g>
<path id="tankstelle" class="fg" d="M17.226,8.195c-0.017-0.038-0.038-0.072-0.067-0.103l-0.902-0.907L14.74,5.68c-0.139-0.138-0.363-0.138-0.501,0c-0.138,0.139-0.138,0.363,0,0.501l1.006,1.005v1.009v0.856v0.001c0,0.091,0.034,0.182,0.104,0.25l0.903,0.905l0.003,4.529v0.002v0.002c-0.002,0.276-0.227,0.5-0.502,0.501h-0.002H15.75h-0.501h-0.003h-0.003c-0.276-0.001-0.499-0.225-0.5-0.501v-0.002v-3.523c0-0.557-0.451-1.007-1.006-1.007h-1.009V5.179c0-0.898-0.727-1.627-1.626-1.627H6.727C5.828,3.552,5.1,4.28,5.1,5.179v11.069h7.629V11.72v-0.004v-0.501h0.001h0.501h0.002h0.002c0.277,0,0.5,0.224,0.501,0.501v3.525c0,0.557,0.451,1.007,1.008,1.007h1.513c0.555,0,1.006-0.45,1.006-1.007V8.343C17.262,8.292,17.247,8.241,17.226,8.195M11.619,8.11c0,0.259-0.207,0.466-0.464,0.466h-4.48c-0.257,0-0.465-0.207-0.465-0.466V5.03c0-0.259,0.208-0.466,0.465-0.466h4.48c0.257,0,0.464,0.207,0.464,0.466V8.11z"/>
</defs>
<svg version="1.0" xmlns="http://www.w3.org/2000/svg">
<use xlink:href="#button"/>
<use transform="scale(1.117647) translate(-1,-1)" xlink:href="#tankstelle" />
</svg>
</svg>