<?xml version="1.0" standalone="no" ?>
<svg xmlns="http://www.w3.org/2000/svg" xmlns:xlink="http://www.w3.org/1999/xlink" version="1.0" width="21px" height="21px" viewBox="0,0,21,21">
<style type="text/css">
<![CDATA[
g { fill-rule:evenodd }
path { fill-rule:evenodd }
.buttonFillKultur { fill:#d782b1 }
.fg { fill:#222 }
]]>
</style>
<defs>
<g id="button"><circle class="buttonFillKultur" cx="10.5" cy="10.5" r="10.5"/></g>
<path id="tour" transform="scale(1.2) translate(4.5,2.5)" d="M 4.9,7.36 l 1.38,3.75 c 0.11,0.3 -0.04,0.64 -0.35,0.75 C 5.62,11.97 5.28,11.81 5.17,11.51 l -1.43,-3.77 V 8.89c 0.02,0.11 0.02,0.24 -0.03,0.35 l -1.09,2.38 c -0.13,0.31 -0.48,0.46 -0.79,0.33 -0.31,-0.13 -0.46,-0.48 -0.33,-0.79 L 2.53,8.91 V 3.53c 0,-0.58 0.47,-1.05 1.05,-1.05 0.39,0 0.98,-0.01 1.31,0.69 C 4.86,3.13 5.3,3.99 5.7,4.45 6.34,5.19 8.07,4.93 8.07,4.93 c 0.23,0.09 0.35,0.34 0.27,0.57 S 8.37,5.95 8.14,5.85 l -0.04,5.19 -0.57,-0.06 L 7.56,5.79 c 0,0 -0.76,0.29 -1.51,0.08 C 5.34,5.66 4.64,4.97 4.64,4.97 L 4.62,6.7 C 4.62,6.91 4.8,7.1 4.9,7.36 z M 4.52,2 c -0.94,0 -1,-1 -1,-1 s 0,-1 1,-1 1,1 1,1 S 5.45,2 4.52,2 z M 0.61,6.04 L 0.02,3.24 C -0.07,2.83 0.21,2.42 0.64,2.33 s 1.23,0.17 1.32,0.58 c 0,0 -0.01,3.71 0.01,3.71 C 1.54,6.95 0.7,6.45 0.61,6.04 z" class="fg"/>
</defs>
<svg version="1.0" xmlns="http://www.w3.org/2000/svg">
<use xlink:href="#button"/>
<use transform="scale(1.117647) translate(-1,-1)" xlink:href="#tour" />
</svg>
</svg>