<?xml version="1.0" standalone="no" ?>
<svg xmlns="http://www.w3.org/2000/svg" xmlns:xlink="http://www.w3.org/1999/xlink" version="1.0" width="21px" height="21px" viewBox="0,0,21,21">
<style type="text/css">
<![CDATA[
g { fill-rule:evenodd }
path { fill-rule:evenodd }
.buttonFillVerkehr { fill:#38f }
.fg { fill:white }
]]>
</style>
<defs>
<g id="button"><circle class="buttonFillVerkehr" cx="10.5" cy="10.5" r="10.5"/></g>
<g id="velo" transform="translate(-1.5,4) scale(0.65)"><path class="fg" d="M5,12.7c0,2.9,2.3,5.1,5.1,5.1c2.5,0,4.5-1.8,5-4.1c0,0,0,0,0.1,0c4-0.2,1.2,1.1,8.8-6.8c0.2,0.6,0.3,0.6,0.4,1.1c-1.9,0.8-3.1,2.6-3.1,4.7c0,2.9,2.3,5.1,5.1,5.1s5.1-2.3,5.1-5.1s-2.3-5.1-5.1-5.1c-0.3,0-0.6,0-0.9,0.1c-2-6.4-1.3-6-5-6.1v1c2.7,0,2.4-0.2,3,2h-9l-0.3-1c2-0.4,2.6-0.4,2.2-1h-4.8v1h1.2l0.3,0.9c-0.5,1.2-1,2.3-1.4,3.2c-0.5-0.2-1-0.3-1.6-0.3C7.3,7.5,5,9.8,5,12.7z M24.9,9.2c1.2,4.1,1.1,4,1.6,4c0.3,0,0.5-0.2,0.5-0.5s0.1,0.1-1.1-3.8c0.2,0,0.4,0,0.6,0c2.2,0,3.9,1.8,3.9,3.9s-1.8,3.9-3.9,3.9s-3.9-1.8-3.9-3.9C22.7,11.1,23.6,9.8,24.9,9.2z M14.8,5.7h8.8l-6.2,6.8L14.8,5.7z M12.7,8.3l0.9-2.2l2.5,6.5h-0.9C15.2,10.7,14.3,9.1,12.7,8.3z M14.1,12.6h-3.3l1.4-3.3C13.3,10,14.1,11.2,14.1,12.6z M6.1,12.7c0-2.2,1.8-3.9,3.9-3.9c0.4,0,0.8,0.1,1.1,0.2c-1.8,3.9-1.9,4.1-1.9,4.3c0.1,0.7,0.4,0.5,4.5,0.5c-0.4,1.6-2,2.9-3.8,2.9C8,16.6,6.1,14.8,6.1,12.7z"/></g>
</defs>
<svg version="1.0" xmlns="http://www.w3.org/2000/svg">
<use xlink:href="#button"/>
<use transform="scale(1.117647) translate(-1,-1)" xlink:href="#velo" />
</svg>
</svg>