<?xml version="1.0" standalone="no" ?>
<svg xmlns="http://www.w3.org/2000/svg" xmlns:xlink="http://www.w3.org/1999/xlink" version="1.0" width="21px" height="21px" viewBox="0,0,21,21">
<style type="text/css">
<![CDATA[
g { fill-rule:evenodd }
path { fill-rule:evenodd }
.buttonFillVerkehr { fill:#38f }
.fg { fill:white }
]]>
</style>
<defs>
<g id="button"><circle class="buttonFillVerkehr" cx="10.5" cy="10.5" r="10.5"/></g>
<use id="viasuisse" xlink:href="#stau"/>
<path id="stau" class="fg" transform="translate(0,1)" d="M4,6 l0.5,-2 4,0 0.5,2 2,0 1,3 2.5,0 1.5,2.5 0,4 -1,0 0,-1 -5,0 0,1 -1,0 0,-4 -2,0 0,1 -1,0 0,-4 -1,0 0,1 -1,0 z M5,5 l3,0 0,1 -3,0 z M7,7 l3,0 0.5,1 -3.5,0 z M10.5,10 l3.5,0 0.5,2 -4.5,0 z"/>
</defs>
<svg version="1.0" xmlns="http://www.w3.org/2000/svg">
<use xlink:href="#button"/>
<use transform="scale(1.117647) translate(-1,-1)" xlink:href="#viasuisse" />
</svg>
</svg>