<?xml version="1.0" standalone="no" ?>
<svg xmlns="http://www.w3.org/2000/svg" xmlns:xlink="http://www.w3.org/1999/xlink" version="1.0" width="21px" height="21px" viewBox="0,0,21,21">
<style type="text/css">
<![CDATA[
g { fill-rule:evenodd }
path { fill-rule:evenodd }
.buttonFillGeo { fill:#6eab61 }
.fg { fill:#222 }
]]>
</style>
<defs>
<g id="button"><circle class="buttonFillGeo" cx="10.5" cy="10.5" r="10.5"/></g>
<g id="wasserfall"><path class="fg" d="M12.748,11.571c-0.152,0.137-0.264,0.203-0.472,0.203c-0.252,0-0.359-0.093-0.576-0.299c-0.144-0.139-0.331-0.302-0.583-0.415C8.92,8.275,12.688,5.49,9.875,2.705H9.146c2.605,2.808-1.477,5.613,0.602,8.421c-0.182,0.104-0.322,0.237-0.438,0.35c-0.113,0.107-0.196,0.183-0.285,0.23c-2.655-3,0.997-6.001-1.289-9.001H6.998c1.869,2.745-1.222,5.491,0.086,8.237c-0.043-0.004-0.079-0.017-0.125-0.017c-0.624,0-0.957,0.316-1.198,0.55c-0.218,0.206-0.325,0.299-0.578,0.299v0.899c0.624,0,0.957-0.318,1.198-0.551c0.217-0.207,0.323-0.299,0.578-0.299c0.251,0,0.36,0.092,0.577,0.299c0.243,0.232,0.574,0.551,1.198,0.551c0.623,0,0.955-0.318,1.196-0.551c0.217-0.207,0.323-0.299,0.575-0.299c0.253,0,0.359,0.092,0.576,0.299c0.242,0.232,0.573,0.551,1.196,0.551s0.955-0.318,1.196-0.551c0.218-0.207,0.323-0.299,0.575-0.299c0.251,0,0.357,0.092,0.574,0.299c0.242,0.232,0.573,0.551,1.195,0.551v-0.899c-0.251,0-0.357-0.093-0.573-0.298c-0.241-0.234-0.573-0.551-1.196-0.551c-0.195,0-0.354,0.037-0.498,0.087c-2.934-2.769,2.125-5.539-2.069-8.308h-0.737C14.962,5.661,8.644,8.616,12.748,11.571"/><path class="fg" d="M14.048,13.082c-0.623,0-0.954,0.316-1.195,0.549c-0.217,0.207-0.323,0.3-0.576,0.3c-0.252,0-0.358-0.093-0.576-0.3c-0.241-0.232-0.571-0.549-1.195-0.549s-0.956,0.316-1.196,0.549c-0.217,0.207-0.324,0.3-0.576,0.3c-0.253,0-0.359-0.093-0.576-0.3c-0.244-0.232-0.575-0.549-1.199-0.549c-0.624,0-0.957,0.316-1.198,0.549c-0.217,0.207-0.324,0.3-0.577,0.3v0.898c0.624,0,0.957-0.317,1.197-0.55c0.218-0.208,0.325-0.3,0.578-0.3c0.252,0,0.36,0.092,0.578,0.3c0.242,0.232,0.574,0.55,1.197,0.55c0.624,0,0.955-0.317,1.197-0.55c0.217-0.208,0.323-0.3,0.575-0.3c0.252,0,0.358,0.092,0.575,0.3c0.242,0.232,0.573,0.55,1.196,0.55s0.955-0.317,1.197-0.55c0.217-0.208,0.322-0.3,0.574-0.3s0.357,0.092,0.574,0.3c0.242,0.232,0.572,0.55,1.195,0.55v-0.898c-0.251,0-0.357-0.093-0.573-0.3C15.003,13.398,14.671,13.082,14.048,13.082"/><path class="fg" d="M14.048,15.237c-0.623,0-0.954,0.317-1.195,0.55c-0.217,0.207-0.323,0.3-0.576,0.3c-0.252,0-0.358-0.093-0.576-0.3c-0.241-0.232-0.571-0.55-1.195-0.55s-0.956,0.317-1.196,0.55c-0.217,0.207-0.324,0.3-0.576,0.3c-0.253,0-0.359-0.093-0.576-0.3c-0.244-0.232-0.575-0.55-1.199-0.55c-0.624,0-0.957,0.317-1.198,0.55c-0.217,0.207-0.324,0.3-0.577,0.3v0.896c0.624,0,0.957-0.316,1.197-0.548c0.218-0.208,0.325-0.301,0.578-0.301c0.252,0,0.36,0.093,0.578,0.301c0.242,0.231,0.574,0.548,1.197,0.548c0.624,0,0.955-0.316,1.197-0.548c0.217-0.208,0.323-0.301,0.575-0.301c0.252,0,0.358,0.093,0.575,0.301c0.242,0.231,0.573,0.548,1.196,0.548s0.955-0.316,1.197-0.548c0.217-0.208,0.322-0.301,0.574-0.301s0.357,0.093,0.574,0.301c0.242,0.231,0.572,0.55,1.195,0.55v-0.898c-0.251,0-0.357-0.093-0.573-0.3C15.003,15.555,14.671,15.237,14.048,15.237"/></g>
</defs>
<svg version="1.0" xmlns="http://www.w3.org/2000/svg">
<use xlink:href="#button"/>
<use transform="scale(1.117647) translate(-1,-1)" xlink:href="#wasserfall" />
</svg>
</svg>