<?xml version="1.0" standalone="no" ?>
<svg xmlns="http://www.w3.org/2000/svg" xmlns:xlink="http://www.w3.org/1999/xlink" version="1.0" width="21px" height="21px" viewBox="0,0,21,21">
<style type="text/css">
<![CDATA[
g { fill-rule:evenodd }
path { fill-rule:evenodd }
.buttonFillGeo { fill:#6eab61 }
.fg { fill:#222 }
]]>
</style>
<defs>
<g id="button"><circle class="buttonFillGeo" cx="10.5" cy="10.5" r="10.5"/></g>
<g id="webcam"><path class="fg" d="M17.551,9.295c0-3.893-3.157-7.051-7.051-7.051S3.45,5.402,3.45,9.295c0,2.555,1.362,4.785,3.396,6.022c-0.671,0.17-1.171,0.773-1.171,1.498c0,0.857,0.696,1.552,1.552,1.552h6.545c0.856,0,1.552-0.694,1.552-1.552c0-0.725-0.499-1.328-1.17-1.498C16.188,14.08,17.551,11.85,17.551,9.295z M10.5,13.853c-2.512,0-4.557-2.045-4.557-4.558c0-2.512,2.045-4.558,4.557-4.558s4.557,2.046,4.557,4.558C15.057,11.808,13.012,13.853,10.5,13.853z"/><path class="fg" d="M11.972,8.952c-0.626,0-1.136-0.508-1.136-1.134c0-0.415,0.226-0.774,0.559-0.972C11.114,6.744,10.815,6.68,10.5,6.68c-1.445,0-2.616,1.171-2.616,2.615s1.17,2.616,2.616,2.616s2.615-1.172,2.615-2.616c0-0.318-0.064-0.62-0.17-0.903C12.748,8.727,12.388,8.952,11.972,8.952z"/></g>
</defs>
<svg version="1.0" xmlns="http://www.w3.org/2000/svg">
<use xlink:href="#button"/>
<use transform="scale(1.117647) translate(-1,-1)" xlink:href="#webcam" />
</svg>
</svg>