<?xml version="1.0" standalone="no" ?>
<svg xmlns="http://www.w3.org/2000/svg" xmlns:xlink="http://www.w3.org/1999/xlink" version="1.0" width="21px" height="21px" viewBox="0,0,21,21">
<style type="text/css">
<![CDATA[
g { fill-rule:evenodd }
path { fill-rule:evenodd }
.buttonFillGeo { fill:#6eab61 }
.fg { fill:#222 }
]]>
</style>
<defs>
<g id="button"><circle class="buttonFillGeo" cx="10.5" cy="10.5" r="10.5"/></g>
<path id="wikipedia" transform="scale(1.2) translate(-1.5,-1)" d="M4,6 v0.392 c0,0 0.263,0 0.537,0.405 0,-0.011 3.273,7.863 3.273,7.863 h0.689 l1.708,-3.328 l1.466,3.328 h0.603 c0,0 3.186,-7.974 3.186,-7.983 c0.13,-0.164 0.538,-0.285 0.538,-0.285 v-0.392 c0,0 -0.843,0.087 -1.86,0 0.011,0.032 0,0.392 0,0.392 s0.14,0.004 0.654,0.256 c0,0.35 -2.222,5.867 -2.222,5.867 l-1.369,-3.098 c0,0 1.369,-2.683 1.369,-2.672 c0.448,-0.295 0.979,-0.353 0.979,-0.353 v-0.337 c-1.094,0.054 -2.448,-0.055 -2.448,-0.055 v0.392 l0.691,0.168 l0.087,0.175 l-0.952,2.014 c0,0 -0.865,-2.08 -0.854,-2.08 0,-0.099 0.109,-0.277 0.175,-0.277 0.022,0 0.56,0 0.56,0 s0,-0.369 0,-0.392 c-1.664,0.12 -3.428,0 -3.428,0 v0.392 c0,0 0.613,0.08 0.767,0.223 s1.784,4.018 1.784,4.018 l-1.083,2.1 c0,0 -2.529,-5.834 -2.529,-6.021 0,-0.055 0.156,-0.299 0.572,-0.32 0.011,-0.011 0,-0.369 0,-0.392 c-1.357,0.099 -2.893,0 -2.893,0 z" class="fg"/>
</defs>
<svg version="1.0" xmlns="http://www.w3.org/2000/svg">
<use xlink:href="#button"/>
<use transform="scale(1.117647) translate(-1,-1)" xlink:href="#wikipedia" />
</svg>
</svg>