<?xml version="1.0" standalone="no" ?>
<svg xmlns="http://www.w3.org/2000/svg" xmlns:xlink="http://www.w3.org/1999/xlink" version="1.0" width="21px" height="21px" viewBox="0,0,21,21">
<style type="text/css">
<![CDATA[
g { fill-rule:evenodd }
path { fill-rule:evenodd }
.buttonFillVerkehr { fill:#38f }
.fg { fill:white }
.fgLineFat { fill:none; stroke-width:8px; stroke:white }
.bg { fill:#222 }
]]>
</style>
<defs>
<g id="button"><circle class="buttonFillVerkehr" cx="10.5" cy="10.5" r="10.5"/></g>
<g id="zug"><rect class="fg" x="3.1" y="12.658" width="3.451" height="1.896"/><path class="fg" d="M15.952,6.706c-0.055-0.394-0.343-0.681-0.675-0.676h-2.231l0.919-0.613c0.156-0.104,0.25-0.28,0.25-0.469c0-0.188-0.094-0.364-0.25-0.468l-2.434-1.624c-0.189-0.126-0.436-0.126-0.625,0L8.471,4.479C8.314,4.584,8.219,4.76,8.219,4.948c0,0.189,0.095,0.365,0.252,0.469L9.388,6.03H3.101v0.947h7.577c0.064,0,0.129,0.015,0.19,0.038c0.022,0.01,0.04,0.021,0.062,0.034c0.168,0.092,0.289,0.264,0.289,0.47c0,0.299-0.244,0.54-0.541,0.54H3.101v3.518h13.46L15.952,6.706z M16.696,12.658h-2.571v1.896h2.503c0.151,0,0.271-0.121,0.271-0.272L16.696,12.658z M11.219,4.001l1.418,0.946l-1.418,0.947l-1.42-0.947L11.219,4.001z M15.411,9.007h-1.623c-0.149,0-0.271-0.121-0.271-0.271V6.842c0-0.148,0.121-0.27,0.271-0.27h1.352c0.151,0,0.271,0.121,0.271,0.27l0.271,1.895C15.682,8.887,15.561,9.007,15.411,9.007"/><path class="fg" d="M8.513,12.931c-0.897,0-1.626,0.727-1.626,1.624c0,0.895,0.729,1.621,1.626,1.621c0.896,0,1.622-0.727,1.622-1.621C10.135,13.657,9.409,12.931,8.513,12.931"/><path class="fg" d="M12.029,12.931c-0.896,0-1.623,0.727-1.623,1.624c0,0.895,0.727,1.621,1.623,1.621c0.896,0,1.623-0.727,1.623-1.621C13.652,13.657,12.925,12.931,12.029,12.931"/></g>
</defs>
<svg version="1.0" xmlns="http://www.w3.org/2000/svg">
<use xlink:href="#button"/>
<use transform="scale(1.117647) translate(-1,-1)" xlink:href="#zug" />
</svg>
</svg>